<?xml version="1.0" encoding="UTF-8" standalone="no"?>
<svg
   xmlns:dc="http://purl.org/dc/elements/1.1/"
   xmlns:cc="http://creativecommons.org/ns#"
   xmlns:rdf="http://www.w3.org/1999/02/22-rdf-syntax-ns#"
   xmlns:svg="http://www.w3.org/2000/svg"
   xmlns="http://www.w3.org/2000/svg"
   viewBox="0 0 266.66666 70.666664"
   height="70.666664"
   width="266.66666"
   xml:space="preserve"
   id="svg2"
   version="1.1"><metadata
     id="metadata8"><rdf:RDF><cc:Work
         rdf:about=""><dc:format>image/svg+xml</dc:format><dc:type
           rdf:resource="http://purl.org/dc/dcmitype/StillImage" /></cc:Work></rdf:RDF></metadata><defs
     id="defs6"><clipPath
       id="clipPath26"
       clipPathUnits="userSpaceOnUse"><path
         id="path24"
         d="M 0,53 H 200 V 0 H 0 Z" /></clipPath></defs><g
     transform="matrix(1.3333333,0,0,-1.3333333,0,70.666667)"
     id="g10"><g
       transform="translate(41.2884,9.4698)"
       id="g12"><path
         id="path14"
         style="fill:#1c4178;fill-opacity:1;fill-rule:nonzero;stroke:none"
         d="M 0,0 V -0.97 H 2.019 V -8.492 H 3.074 V -0.97 H 5.091 V 0 Z" /></g><g
       transform="translate(47.3256,9.4689)"
       id="g16"><path
         id="path18"
         style="fill:#1c4178;fill-opacity:1;fill-rule:nonzero;stroke:none"
         d="m 0,0 v -8.492 h 4.559 v 0.97 H 1.057 v 3.206 h 3.402 v 0.971 H 1.057 v 2.378 H 4.559 V 0 Z" /></g><g
       id="g20"><g
         clip-path="url(#clipPath26)"
         id="g22"><g
           transform="translate(59.4882,7.8469)"
           id="g28"><path
             id="path30"
             style="fill:#1c4178;fill-opacity:1;fill-rule:evenodd;stroke:none"
             d="m 0,0 c -0.61,0.542 -1.442,0.832 -2.241,0.832 -1.903,0 -3.357,-1.588 -3.357,-3.468 0,-1.857 1.444,-3.446 3.333,-3.446 0.834,0 1.634,0.317 2.265,0.878 v -1.247 c -0.654,-0.385 -1.488,-0.599 -2.23,-0.599 -2.422,0 -4.425,1.926 -4.425,4.38 0,2.511 2.014,4.471 4.514,4.471 0.744,0 1.499,-0.178 2.141,-0.573 z" /></g><g
           transform="translate(65.872,6.0458)"
           id="g32"><path
             id="path34"
             style="fill:#1c4178;fill-opacity:1;fill-rule:evenodd;stroke:none"
             d="M 0,0 V 3.423 H 1.057 V -5.069 H 0 v 4.077 h -4.041 v -4.077 h -1.061 v 8.492 h 1.061 V 0 Z" /></g><g
           transform="translate(68.4745,9.8744)"
           id="g36"><path
             id="path38"
             style="fill:#1c4178;fill-opacity:1;fill-rule:evenodd;stroke:none"
             d="m 0,0 6.374,-6.681 v 6.273 H 7.433 V -9.247 L 1.057,-2.57 V -8.896 H 0 Z" /></g><g
           transform="translate(85.8272,5.2239)"
           id="g40"><path
             id="path42"
             style="fill:#1c4178;fill-opacity:1;fill-rule:evenodd;stroke:none"
             d="m 0,0 c 0,-2.524 -1.994,-4.429 -4.447,-4.429 -2.456,0 -4.447,1.905 -4.447,4.429 0,2.43 2.012,4.425 4.447,4.425 C -2.015,4.425 0,2.43 0,0 m -1.057,0 c 0,1.869 -1.399,3.434 -3.39,3.434 -1.994,0 -3.39,-1.565 -3.39,-3.434 0,-1.939 1.553,-3.436 3.39,-3.436 1.835,0 3.39,1.497 3.39,3.436" /></g><g
           transform="translate(88.0234,1.9464)"
           id="g44"><path
             id="path46"
             style="fill:#1c4178;fill-opacity:1;fill-rule:evenodd;stroke:none"
             d="M 0,0 H 2.578 V -0.968 H -1.058 V 7.521 L 0,7.521 Z" /></g><g
           transform="translate(99.7131,5.2239)"
           id="g48"><path
             id="path50"
             style="fill:#1c4178;fill-opacity:1;fill-rule:evenodd;stroke:none"
             d="m 0,0 c 0,-2.524 -1.994,-4.429 -4.449,-4.429 -2.454,0 -4.447,1.905 -4.447,4.429 0,2.43 2.014,4.425 4.447,4.425 C -2.016,4.425 0,2.43 0,0 m -1.058,0 c 0,1.869 -1.398,3.434 -3.391,3.434 -1.994,0 -3.388,-1.565 -3.388,-3.434 0,-1.939 1.554,-3.436 3.388,-3.436 1.836,0 3.391,1.497 3.391,3.436" /></g><g
           transform="translate(108.5869,5.2572)"
           id="g52"><path
             id="path54"
             style="fill:#1c4178;fill-opacity:1;fill-rule:evenodd;stroke:none"
             d="M 0,0 V -0.337 C 0,-2.67 -1.643,-4.46 -4.019,-4.46 c -2.378,0 -4.292,2.048 -4.292,4.402 0,2.445 1.961,4.449 4.404,4.449 1.317,0 2.622,-0.596 3.458,-1.644 l -0.744,-0.71 c -0.608,0.832 -1.634,1.385 -2.671,1.385 -1.902,0 -3.388,-1.541 -3.388,-3.446 0,-1.778 1.463,-3.467 3.3,-3.467 1.318,0 2.734,1.136 2.781,2.522 H -3.367 V 0 Z" /></g><g
           transform="translate(108.8682,9.4691)"
           id="g56"><path
             id="path58"
             style="fill:#1c4178;fill-opacity:1;fill-rule:evenodd;stroke:none"
             d="M 0,0 H 1.215 L 3.3,-3.625 5.382,0 H 6.601 L 3.83,-4.799 V -8.492 H 2.771 v 3.693 z" /></g><g
           transform="translate(43.637,27.9985)"
           id="g60"><path
             id="path62"
             style="fill:#1c4178;fill-opacity:1;fill-rule:evenodd;stroke:none"
             d="m 0,0 h -1.058 v 7.521 h -2.016 v 0.97 h 5.09 V 7.521 H 0 Z" /></g><g
           transform="translate(51.6096,33.0645)"
           id="g64"><path
             id="path66"
             style="fill:#1c4178;fill-opacity:1;fill-rule:evenodd;stroke:none"
             d="M 0,0 V 3.424 H 1.058 V -5.067 H 0 v 4.077 h -4.043 v -4.077 h -1.058 v 8.491 h 1.058 V 0 Z" /></g><g
           transform="translate(54.3131,36.4889)"
           id="g68"><path
             id="path70"
             style="fill:#1c4178;fill-opacity:1;fill-rule:evenodd;stroke:none"
             d="M 0,0 H 4.561 V -0.968 H 1.057 V -3.346 H 4.46 V -4.315 H 1.057 v -3.207 h 3.504 v -0.97 H 0 Z" /></g><g
           transform="translate(68.6708,33.0645)"
           id="g72"><path
             id="path74"
             style="fill:#1c4178;fill-opacity:1;fill-rule:evenodd;stroke:none"
             d="M 0,0 V 3.424 H 1.057 V -5.067 H 0 v 4.077 h -4.043 v -4.077 h -1.059 v 8.491 h 1.059 V 0 Z" /></g><g
           transform="translate(79.6741,32.2449)"
           id="g76"><path
             id="path78"
             style="fill:#1c4178;fill-opacity:1;fill-rule:evenodd;stroke:none"
             d="m 0,0 c 0,-2.524 -1.994,-4.428 -4.449,-4.428 -2.456,0 -4.447,1.904 -4.447,4.428 0,2.43 2.013,4.426 4.447,4.426 C -2.016,4.426 0,2.43 0,0 m -1.059,0 c 0,1.869 -1.397,3.435 -3.39,3.435 -1.994,0 -3.389,-1.566 -3.389,-3.435 0,-1.936 1.552,-3.436 3.389,-3.436 1.836,0 3.39,1.5 3.39,3.436" /></g><g
           transform="translate(80.7096,36.8953)"
           id="g80"><path
             id="path82"
             style="fill:#1c4178;fill-opacity:1;fill-rule:evenodd;stroke:none"
             d="m 0,0 6.375,-6.681 v 6.273 h 1.058 v -8.84 L 1.058,-2.571 V -8.896 H 0 Z" /></g><g
           transform="translate(97.4987,32.277)"
           id="g84"><path
             id="path86"
             style="fill:#1c4178;fill-opacity:1;fill-rule:evenodd;stroke:none"
             d="m 0,0 v -0.337 c 0,-2.333 -1.642,-4.124 -4.019,-4.124 -2.375,0 -4.291,2.049 -4.291,4.405 0,2.443 1.96,4.447 4.403,4.447 1.318,0 2.623,-0.595 3.458,-1.644 l -0.744,-0.71 c -0.608,0.832 -1.633,1.385 -2.67,1.385 -1.903,0 -3.389,-1.541 -3.389,-3.446 0,-1.778 1.464,-3.467 3.3,-3.467 1.319,0 2.735,1.136 2.781,2.523 H -3.366 V 0 Z" /></g><g
           transform="translate(106.6882,36.4889)"
           id="g88"><path
             id="path90"
             style="fill:#1c4178;fill-opacity:1;fill-rule:evenodd;stroke:none"
             d="m 0,0 h 1.386 l -3.817,-3.816 3.883,-4.676 h -1.43 l -3.197,3.954 -0.428,-0.406 v -3.548 h -1.06 V 0 h 1.06 v -3.683 z" /></g><g
           transform="translate(117.1956,32.2449)"
           id="g92"><path
             id="path94"
             style="fill:#1c4178;fill-opacity:1;fill-rule:evenodd;stroke:none"
             d="m 0,0 c 0,-2.524 -1.995,-4.428 -4.448,-4.428 -2.456,0 -4.447,1.904 -4.447,4.428 0,2.43 2.013,4.426 4.447,4.426 C -2.015,4.426 0,2.43 0,0 m -1.057,0 c 0,1.869 -1.398,3.435 -3.391,3.435 -1.993,0 -3.39,-1.566 -3.39,-3.435 0,-1.936 1.554,-3.436 3.39,-3.436 1.835,0 3.391,1.5 3.391,3.436" /></g><g
           transform="translate(118.2311,36.8953)"
           id="g96"><path
             id="path98"
             style="fill:#1c4178;fill-opacity:1;fill-rule:evenodd;stroke:none"
             d="m 0,0 6.375,-6.681 v 6.273 h 1.059 v -8.84 L 1.057,-2.571 V -8.896 H 0 Z" /></g><g
           transform="translate(135.0214,32.277)"
           id="g100"><path
             id="path102"
             style="fill:#1c4178;fill-opacity:1;fill-rule:evenodd;stroke:none"
             d="m 0,0 v -0.337 c 0,-2.333 -1.642,-4.124 -4.018,-4.124 -2.378,0 -4.292,2.049 -4.292,4.405 0,2.443 1.959,4.447 4.403,4.447 1.318,0 2.623,-0.595 3.458,-1.644 l -0.743,-0.71 c -0.61,0.832 -1.634,1.385 -2.671,1.385 -1.903,0 -3.388,-1.541 -3.388,-3.446 0,-1.778 1.463,-3.467 3.3,-3.467 1.315,0 2.734,1.136 2.781,2.523 H -3.366 V 0 Z" /></g><g
           transform="translate(131.1928,5.2526)"
           id="g104"><path
             id="path106"
             style="fill:#1c4178;fill-opacity:1;fill-rule:evenodd;stroke:none"
             d="m 0,0 v -0.339 c 0,-2.335 -1.647,-4.13 -4.029,-4.13 -2.38,0 -4.298,2.053 -4.298,4.413 0,2.447 1.964,4.456 4.413,4.456 1.32,0 2.627,-0.6 3.463,-1.647 L -1.197,2.041 c -0.607,0.834 -1.635,1.388 -2.674,1.388 -1.907,0 -3.396,-1.544 -3.396,-3.453 0,-1.78 1.467,-3.476 3.308,-3.476 1.319,0 2.74,1.139 2.785,2.53 h -2.2 V 0 Z" /></g><g
           transform="translate(133.2603,9.4714)"
           id="g108"><path
             id="path110"
             style="fill:#1c4178;fill-opacity:1;fill-rule:evenodd;stroke:none"
             d="m 0,0 v -5.021 c 0,-1.387 0.417,-2.674 2.052,-2.674 1.637,0 2.053,1.287 2.053,2.674 V 0 h 1.063 v -5.38 c 0,-1.875 -1.162,-3.312 -3.116,-3.312 -1.95,0 -3.112,1.437 -3.112,3.312 V 0 Z" /></g><g
           transform="translate(141.2055,3.0966)"
           id="g112"><path
             id="path114"
             style="fill:#1c4178;fill-opacity:1;fill-rule:evenodd;stroke:none"
             d="M 0,0 -0.971,-2.132 H -2.11 L 1.951,6.735 6.013,-2.132 H 4.874 L 3.904,0 Z M 1.951,4.413 0.44,0.969 h 3.023 z" /></g><g
           transform="translate(147.9326,9.8777)"
           id="g116"><path
             id="path118"
             style="fill:#1c4178;fill-opacity:1;fill-rule:evenodd;stroke:none"
             d="m 0,0 6.385,-6.69 v 6.282 H 7.446 V -9.264 L 1.059,-2.572 V -8.913 H 0 Z" /></g><g
           transform="translate(164.747,5.2526)"
           id="g120"><path
             id="path122"
             style="fill:#1c4178;fill-opacity:1;fill-rule:evenodd;stroke:none"
             d="m 0,0 v -0.339 c 0,-2.335 -1.647,-4.13 -4.03,-4.13 -2.38,0 -4.297,2.053 -4.297,4.413 0,2.447 1.964,4.456 4.413,4.456 1.318,0 2.626,-0.6 3.463,-1.647 L -1.197,2.041 c -0.607,0.834 -1.635,1.388 -2.674,1.388 -1.907,0 -3.396,-1.544 -3.396,-3.453 0,-1.78 1.467,-3.476 3.308,-3.476 1.318,0 2.74,1.139 2.785,2.53 h -2.2 V 0 Z" /></g><g
           transform="translate(171.2261,1.935)"
           id="g124"><path
             id="path126"
             style="fill:#1c4178;fill-opacity:1;fill-rule:evenodd;stroke:none"
             d="m 0,0 v -0.97 h -6.037 l 4.31,7.536 H -5.426 V 7.535 H 0 L -4.311,0 Z" /></g><g
           transform="translate(177.2518,6.0424)"
           id="g128"><path
             id="path130"
             style="fill:#1c4178;fill-opacity:1;fill-rule:evenodd;stroke:none"
             d="M 0,0 V 3.431 H 1.061 V -5.078 H 0 v 4.085 H -4.05 V -5.078 H -5.111 V 3.431 H -4.05 V 0 Z" /></g><g
           transform="translate(188.2666,5.2181)"
           id="g132"><path
             id="path134"
             style="fill:#1c4178;fill-opacity:1;fill-rule:evenodd;stroke:none"
             d="m 0,0 c 0,-2.527 -1.996,-4.434 -4.458,-4.434 -2.46,0 -4.457,1.907 -4.457,4.434 0,2.436 2.022,4.433 4.457,4.433 C -2.02,4.433 0,2.436 0,0 m -1.06,0 c 0,1.874 -1.399,3.442 -3.398,3.442 -1.996,0 -3.396,-1.568 -3.396,-3.442 0,-1.942 1.559,-3.443 3.396,-3.443 1.839,0 3.398,1.501 3.398,3.443" /></g><g
           transform="translate(190.3123,9.4714)"
           id="g136"><path
             id="path138"
             style="fill:#1c4178;fill-opacity:1;fill-rule:evenodd;stroke:none"
             d="m 0,0 v -5.021 c 0,-1.387 0.416,-2.674 2.054,-2.674 1.635,0 2.052,1.287 2.052,2.674 V 0 h 1.062 v -5.38 c 0,-1.875 -1.162,-3.312 -3.114,-3.312 -1.952,0 -3.114,1.437 -3.114,3.312 l 0,5.38 z" /></g><g
           transform="translate(121.5017,10.2543)"
           id="g140"><path
             id="path142"
             style="fill:#1c4178;fill-opacity:1;fill-rule:evenodd;stroke:none"
             d="m 0,0 c -0.461,-0.871 -0.789,-1.583 -0.983,-2.132 -0.315,-0.929 -0.471,-1.897 -0.471,-2.898 0,-1.611 0.482,-3.28 1.442,-5.009 h -0.773 c -0.522,0.704 -0.958,1.5 -1.307,2.392 -0.334,0.894 -0.501,1.776 -0.501,2.649 0,1.193 0.303,2.366 0.908,3.521 0.321,0.616 0.626,1.108 0.912,1.477 z" /></g><g
           transform="translate(200,5.2135)"
           id="g144"><path
             id="path146"
             style="fill:#1c4178;fill-opacity:1;fill-rule:evenodd;stroke:none"
             d="M 0,0 C 0,-1.186 -0.302,-2.361 -0.91,-3.523 -1.208,-4.094 -1.513,-4.586 -1.82,-5 h -0.772 c 0.46,0.864 0.786,1.576 0.983,2.125 0.312,0.926 0.47,1.896 0.47,2.905 0,1.611 -0.482,3.281 -1.444,5.009 h 0.775 C -1.287,4.349 -0.856,3.549 -0.513,2.634 -0.17,1.729 0,0.852 0,0" /></g><g
           transform="translate(42.2629,22.9796)"
           id="g148"><path
             id="path150"
             style="fill:#1c4178;fill-opacity:1;fill-rule:evenodd;stroke:none"
             d="m 0,0 v -5.012 c 0,-1.384 0.416,-2.668 2.049,-2.668 1.633,0 2.049,1.284 2.049,2.668 V 0 h 1.06 v -5.372 c 0,-1.869 -1.162,-3.3 -3.109,-3.3 -1.949,0 -3.107,1.431 -3.107,3.3 l 0,5.372 z" /></g><g
           transform="translate(49.0543,23.3848)"
           id="g152"><path
             id="path154"
             style="fill:#1c4178;fill-opacity:1;fill-rule:evenodd;stroke:none"
             d="m 0,0 6.374,-6.681 v 6.273 H 7.43 V -9.247 L 1.058,-2.571 V -8.896 H 0 Z" /></g><path
           id="path156"
           style="fill:#1c4178;fill-opacity:1;fill-rule:evenodd;stroke:none"
           d="m 59.605,14.488 h -1.059 v 8.492 h 1.059 z" /><g
           transform="translate(64.1087,16.6956)"
           id="g158"><path
             id="path160"
             style="fill:#1c4178;fill-opacity:1;fill-rule:evenodd;stroke:none"
             d="M 0,0 2.523,6.284 H 3.682 L 0,-2.659 -3.695,6.284 h 1.161 z" /></g><g
           transform="translate(68.6249,22.9796)"
           id="g162"><path
             id="path164"
             style="fill:#1c4178;fill-opacity:1;fill-rule:evenodd;stroke:none"
             d="M 0,0 H 4.56 V -0.968 H 1.059 V -3.346 H 4.46 V -4.315 H 1.059 V -7.522 H 4.56 V -8.493 H 0 Z" /></g><g
           transform="translate(79.8865,14.4891)"
           id="g166"><path
             id="path168"
             style="fill:#1c4178;fill-opacity:1;fill-rule:evenodd;stroke:none"
             d="M 0,0 H -1.284 L -3.783,3.59 H -4.222 V 0 h -1.06 v 8.491 h 1.286 c 0.752,0 1.564,-0.012 2.24,-0.395 0.707,-0.418 1.114,-1.217 1.114,-2.027 0,-1.216 -0.811,-2.23 -2.037,-2.377 z m -4.222,4.469 h 0.337 c 1.08,0 2.252,0.205 2.252,1.554 0,1.33 -1.262,1.521 -2.309,1.521 h -0.28 z" /></g><g
           transform="translate(84.763,21.369)"
           id="g170"><path
             id="path172"
             style="fill:#1c4178;fill-opacity:1;fill-rule:evenodd;stroke:none"
             d="m 0,0 c -0.316,0.529 -0.719,0.802 -1.364,0.802 -0.674,0 -1.418,-0.465 -1.418,-1.208 0,-0.664 0.654,-1.013 1.183,-1.216 l 0.608,-0.238 c 1.206,-0.471 2.105,-1.136 2.105,-2.555 0,-1.541 -1.192,-2.646 -2.713,-2.646 -1.374,0 -2.444,1.012 -2.625,2.376 l 1.07,0.225 c -0.011,-0.935 0.732,-1.608 1.646,-1.608 0.912,0 1.566,0.762 1.566,1.653 0,0.913 -0.734,1.304 -1.465,1.609 l -0.587,0.249 c -0.968,0.416 -1.846,0.968 -1.846,2.151 0,1.372 1.216,2.196 2.5,2.196 0.946,0 1.723,-0.461 2.185,-1.283 z" /></g><path
           id="path174"
           style="fill:#1c4178;fill-opacity:1;fill-rule:evenodd;stroke:none"
           d="m 88.332,14.488 h -1.058 v 8.492 h 1.058 z" /><g
           transform="translate(92.5556,14.4881)"
           id="g176"><path
             id="path178"
             style="fill:#1c4178;fill-opacity:1;fill-rule:evenodd;stroke:none"
             d="M 0,0 H -1.058 V 7.521 H -3.074 V 8.493 H 2.017 V 7.521 L 0,7.521 Z" /></g><g
           transform="translate(94.9536,22.9796)"
           id="g180"><path
             id="path182"
             style="fill:#1c4178;fill-opacity:1;fill-rule:evenodd;stroke:none"
             d="M 0,0 H 1.215 L 3.301,-3.625 5.382,0 H 6.599 L 3.829,-4.797 V -8.493 H 2.77 v 3.696 z" /></g><g
           transform="translate(114.2717,18.7332)"
           id="g184"><path
             id="path186"
             style="fill:#1c4178;fill-opacity:1;fill-rule:evenodd;stroke:none"
             d="m 0,0 c 0,-2.523 -1.995,-4.427 -4.451,-4.427 -2.454,0 -4.445,1.904 -4.445,4.427 0,2.431 2.014,4.427 4.445,4.427 C -2.017,4.427 0,2.431 0,0 m -1.059,0 c 0,1.871 -1.398,3.436 -3.392,3.436 -1.992,0 -3.39,-1.565 -3.39,-3.436 0,-1.936 1.557,-3.435 3.39,-3.435 1.837,0 3.392,1.499 3.392,3.435" /></g><g
           transform="translate(116.6136,22.0095)"
           id="g188"><path
             id="path190"
             style="fill:#1c4178;fill-opacity:1;fill-rule:evenodd;stroke:none"
             d="m 0,0 v -2.385 h 2.951 v -0.97 H 0 V -7.52 H -1.059 V 0.969 H 3.053 V 0 Z" /></g><g
           transform="translate(128.6582,21.369)"
           id="g192"><path
             id="path194"
             style="fill:#1c4178;fill-opacity:1;fill-rule:evenodd;stroke:none"
             d="m 0,0 c -0.316,0.529 -0.719,0.802 -1.362,0.802 -0.675,0 -1.418,-0.465 -1.418,-1.208 0,-0.664 0.652,-1.013 1.181,-1.216 l 0.608,-0.238 c 1.206,-0.471 2.107,-1.136 2.107,-2.555 0,-1.541 -1.194,-2.646 -2.715,-2.646 -1.374,0 -2.444,1.012 -2.625,2.376 l 1.071,0.225 c -0.01,-0.935 0.733,-1.608 1.646,-1.608 0.911,0 1.565,0.762 1.565,1.653 0,0.913 -0.733,1.304 -1.465,1.609 l -0.584,0.249 c -0.97,0.416 -1.848,0.968 -1.848,2.151 0,1.372 1.216,2.196 2.5,2.196 0.946,0 1.722,-0.461 2.184,-1.283 z" /></g><g
           transform="translate(137.4642,21.3575)"
           id="g196"><path
             id="path198"
             style="fill:#1c4178;fill-opacity:1;fill-rule:evenodd;stroke:none"
             d="m 0,0 c -0.609,0.541 -1.441,0.831 -2.239,0.831 -1.904,0 -3.358,-1.588 -3.358,-3.467 0,-1.858 1.442,-3.446 3.333,-3.446 0.835,0 1.634,0.316 2.264,0.878 v -1.248 c -0.652,-0.384 -1.487,-0.598 -2.229,-0.598 -2.421,0 -4.424,1.926 -4.424,4.38 0,2.51 2.013,4.471 4.514,4.471 0.744,0 1.497,-0.179 2.139,-0.574 z" /></g><path
           id="path200"
           style="fill:#1c4178;fill-opacity:1;fill-rule:evenodd;stroke:none"
           d="m 140.258,14.488 h -1.059 v 8.492 h 1.059 z" /><g
           transform="translate(142.3511,22.9796)"
           id="g202"><path
             id="path204"
             style="fill:#1c4178;fill-opacity:1;fill-rule:evenodd;stroke:none"
             d="M 0,0 H 4.561 V -0.968 H 1.059 v -2.378 h 3.4 v -0.969 h -3.4 V -7.522 H 4.561 V -8.493 H 0 Z" /></g><g
           transform="translate(148.6236,23.3848)"
           id="g206"><path
             id="path208"
             style="fill:#1c4178;fill-opacity:1;fill-rule:evenodd;stroke:none"
             d="m 0,0 6.375,-6.681 v 6.273 H 7.433 V -9.247 L 1.059,-2.571 V -8.896 H 0 Z" /></g><g
           transform="translate(163.9398,21.3575)"
           id="g210"><path
             id="path212"
             style="fill:#1c4178;fill-opacity:1;fill-rule:evenodd;stroke:none"
             d="m 0,0 c -0.609,0.541 -1.441,0.831 -2.241,0.831 -1.902,0 -3.357,-1.588 -3.357,-3.467 0,-1.858 1.441,-3.446 3.333,-3.446 0.834,0 1.634,0.316 2.265,0.878 v -1.248 c -0.654,-0.384 -1.488,-0.598 -2.229,-0.598 -2.423,0 -4.426,1.926 -4.426,4.38 0,2.51 2.015,4.471 4.516,4.471 0.742,0 1.497,-0.179 2.139,-0.574 z" /></g><g
           transform="translate(165.4702,22.9796)"
           id="g214"><path
             id="path216"
             style="fill:#1c4178;fill-opacity:1;fill-rule:evenodd;stroke:none"
             d="M 0,0 H 4.562 V -0.968 H 1.058 V -3.346 H 4.46 V -4.315 H 1.058 V -7.522 H 4.562 V -8.493 H 0 Z" /></g><g
           transform="translate(177.0601,16.5843)"
           id="g218"><path
             id="path220"
             style="fill:#1c4178;fill-opacity:1;fill-rule:evenodd;stroke:none"
             d="M 0,0 -0.966,-2.13 H -2.105 L 1.949,6.724 6.003,-2.13 H 4.867 L 3.896,0 Z M 1.949,4.402 0.441,0.967 h 3.017 z" /></g><g
           transform="translate(184.0213,23.3527)"
           id="g222"><path
             id="path224"
             style="fill:#1c4178;fill-opacity:1;fill-rule:evenodd;stroke:none"
             d="m 0,0 6.374,-6.679 v 6.272 h 1.059 v -8.84 L 1.058,-2.57 V -8.895 H 0 Z" /></g><g
           transform="translate(193.0629,22.9475)"
           id="g226"><path
             id="path228"
             style="fill:#1c4178;fill-opacity:1;fill-rule:evenodd;stroke:none"
             d="m 0,0 h 1.759 c 2.6,0 4.763,-1.377 4.763,-4.2 0,-2.894 -2.117,-4.292 -4.799,-4.292 H 0 Z m 1.059,-7.522 h 0.372 c 2.164,0 4.03,0.81 4.03,3.277 0,2.476 -1.866,3.276 -4.03,3.276 H 1.059 Z" /></g><g
           transform="translate(49.5892,46.0114)"
           id="g230"><path
             id="path232"
             style="fill:#1c4178;fill-opacity:1;fill-rule:evenodd;stroke:none"
             d="m 0,0 v -5.032 h -1.076 v 0.533 h -5.703 v -0.533 h -1.078 v 4.973 c -0.191,-0.083 -0.521,-0.206 -0.984,-0.357 l -0.556,1.028 c 1.407,0.342 2.632,0.949 3.673,1.821 h -3.58 v 0.963 h 4.763 V 4.335 C -6.28,4.288 -7.527,4.266 -8.284,4.266 l -0.382,1.066 c 0.439,-0.016 0.984,-0.022 1.634,-0.022 3.082,0 5.414,0.177 6.999,0.535 L 0.465,4.891 C -0.587,4.677 -1.891,4.502 -3.451,4.372 V 3.396 H 1.44 V 2.433 H -2.295 C -1.413,1.585 -0.138,0.994 1.532,0.661 L 1.022,-0.396 C 0.868,-0.324 0.698,-0.265 0.513,-0.21 0.326,-0.155 0.155,-0.085 0,0 m -7.19,0.266 h 2.645 V 2.399 C -5.218,1.442 -6.1,0.73 -7.19,0.266 m 6.111,-0.974 H -6.785 V -1.59 h 5.706 z m -5.705,-2.83 h 5.706 v 1.02 h -5.706 z m 3.329,5.95 V 0.266 h 2.864 C -1.775,0.73 -2.73,1.445 -3.455,2.412" /></g><g
           transform="translate(57.4299,44.5649)"
           id="g234"><path
             id="path236"
             style="fill:#1c4178;fill-opacity:1;fill-rule:evenodd;stroke:none"
             d="M 0,0 -1.009,0.592 C -1.255,-0.508 -1.72,-1.541 -2.4,-2.505 l 0.927,-0.949 C -0.809,-2.405 -0.317,-1.253 0,0 M -0.717,1.88 0.068,2.875 C -0.525,3.331 -1.097,3.704 -1.647,3.999 L -2.343,3.129 C -1.886,2.827 -1.346,2.412 -0.717,1.88 m 1.133,4.137 h 1.54 v 1.208 h 1.06 V 6.017 H 5.131 V 7.225 H 6.177 V 6.017 H 8.09 V 5.103 H 6.177 V 3.907 H 8.264 V 2.933 H 6.049 C 6.357,2.307 7.14,1.685 8.392,1.066 L 7.892,0.034 C 7.182,0.461 6.595,0.882 6.132,1.298 V -1.079 H 2.397 V -1.82 c 0,-0.269 0.136,-0.407 0.407,-0.407 h 3.442 c 0.325,0 0.518,0.119 0.581,0.36 0.06,0.248 0.118,0.675 0.173,1.287 L 8.113,-0.987 C 7.989,-2.062 7.822,-2.707 7.615,-2.92 7.415,-3.129 7.016,-3.235 6.421,-3.235 H 2.665 c -0.495,0 -0.844,0.093 -1.045,0.277 -0.192,0.193 -0.288,0.553 -0.288,1.078 V 0.718 C 1.137,0.557 0.782,0.315 0.266,-0.012 l -0.663,0.974 c 1.283,0.58 2.094,1.233 2.434,1.959 H 0.183 v 0.975 h 1.773 v 1.16 H 0.416 V 5.68 l -0.71,-0.878 c -0.632,0.577 -1.208,1.031 -1.727,1.354 l 0.766,0.861 C -0.597,6.596 -0.041,6.214 0.416,5.866 Z M 2.389,-0.165 H 5.055 V 0.973 H 2.389 Z M 3.27,2.933 C 3.099,2.538 2.872,2.189 2.586,1.889 H 5.543 C 5.286,2.177 5.051,2.523 4.834,2.933 Z M 3.013,3.907 h 2.11 v 1.138 h -2.11 z" /></g><g
           transform="translate(72.0298,50.2278)"
           id="g238"><path
             id="path240"
             style="fill:#1c4178;fill-opacity:1;fill-rule:evenodd;stroke:none"
             d="M 0,0 C -0.408,-0.078 -1.006,-0.145 -1.796,-0.196 L -2.04,0.776 C -0.307,0.858 1.18,1.139 2.425,1.61 L 2.818,0.661 C 2.263,0.465 1.68,0.308 1.069,0.185 V -1.451 H 2.831 V -2.446 H 1.069 V -2.552 C 1.934,-3.355 2.587,-3.997 3.027,-4.479 L 2.378,-5.473 C 2.146,-5.149 1.915,-4.857 1.683,-4.592 1.48,-4.353 1.277,-4.093 1.069,-3.816 V -9.195 L 0,-9.241 v 4.762 c -0.293,-0.738 -0.819,-1.606 -1.575,-2.597 l -0.65,1.046 c 0.974,1.107 1.705,2.299 2.191,3.584 h -2.123 v 0.995 H 0 Z m 2.684,-6.645 3.884,0.591 v -3.187 h 1.078 v 3.327 l 1.043,0.173 v 1.056 L 7.646,-4.861 V 1.68 H 6.568 v -6.665 l -3.884,-0.58 z m 2.525,2.354 c -0.796,0.664 -1.501,1.179 -2.11,1.541 l 0.683,0.777 C 4.361,-2.276 5.076,-2.75 5.928,-3.4 Z m 0.207,2.818 C 4.56,-0.784 3.862,-0.277 3.33,0.045 L 4.025,0.81 C 4.528,0.53 5.235,0.061 6.147,-0.604 Z" /></g><g
           transform="translate(88.9417,48.4565)"
           id="g242"><path
             id="path244"
             style="fill:#1c4178;fill-opacity:1;fill-rule:evenodd;stroke:none"
             d="m 0,0 h -1.368 v -2.05 c 0.617,0.2 1.069,0.369 1.355,0.508 v -1.135 c -0.239,-0.134 -0.692,-0.31 -1.355,-0.532 V -6.05 c 0,-0.549 -0.078,-0.915 -0.234,-1.091 -0.161,-0.185 -0.53,-0.279 -1.105,-0.279 h -0.917 l -0.265,1.171 1.008,-0.037 c 0.256,0 0.383,0.131 0.383,0.384 v 2.365 c -0.658,-0.169 -1.176,-0.301 -1.554,-0.394 l -0.279,1.254 c 0.675,0.085 1.284,0.2 1.833,0.347 V 0 h -1.715 v 1.054 h 1.715 v 2.38 h 1.141 V 1.054 H 0.012 V 1.796 H 2.504 V 3.434 H 3.651 V 1.796 H 6.39 V 0.743 H 3.651 V -0.809 H 5.995 V -1.774 C 5.895,-2.191 5.638,-2.734 5.23,-3.408 4.826,-4.083 4.407,-4.612 3.965,-4.998 4.739,-5.63 5.61,-6.083 6.586,-6.353 l -0.591,-1.09 c -1.021,0.33 -1.979,0.906 -2.878,1.729 -1.22,-0.936 -2.386,-1.52 -3.5,-1.754 l -0.636,1.055 c 1.112,0.25 2.224,0.748 3.338,1.496 -0.596,0.603 -1.178,1.426 -1.751,2.472 l 0.963,0.38 c 0.532,-0.942 1.066,-1.68 1.599,-2.214 0.789,0.629 1.35,1.426 1.681,2.399 H 0.208 v 1.071 H 2.504 V 0.743 H 0.012 Z" /></g><g
           transform="translate(106.3404,47.7436)"
           id="g246"><path
             id="path248"
             style="fill:#1c4178;fill-opacity:1;fill-rule:evenodd;stroke:none"
             d="M 0,0 C 0.177,-0.945 0.596,-1.934 1.252,-2.968 1.91,-4.003 2.814,-4.901 3.965,-5.657 L 3.073,-6.728 C 0.986,-5.359 -0.443,-3.114 -1.217,0 H -1.401 C -1.92,-2.791 -3.477,-5.038 -6.075,-6.748 l -0.882,1.1 c 1.098,0.627 2.04,1.453 2.83,2.472 0.779,1.019 1.263,2.075 1.449,3.162 h -4 v 1.229 h 4.196 c 0.103,0.707 0.151,1.677 0.151,2.915 h 1.219 c 0,-1.33 -0.031,-2.3 -0.093,-2.915 h 4.916 v -1.229 z" /></g><g
           transform="translate(133.3121,51.9854)"
           id="g250"><path
             id="path252"
             style="fill:#1c4178;fill-opacity:1;fill-rule:evenodd;stroke:none"
             d="m 0,0 c -0.513,-0.971 -0.879,-1.767 -1.097,-2.378 -0.349,-1.033 -0.524,-2.111 -0.524,-3.23 0,-1.799 0.536,-3.66 1.609,-5.585 h -0.864 c -0.582,0.784 -1.067,1.672 -1.456,2.668 -0.374,0.996 -0.56,1.98 -0.56,2.951 0,1.33 0.338,2.637 1.015,3.931 0.356,0.683 0.696,1.23 1.015,1.643 z" /></g><g
           transform="translate(152.5084,49.12)"
           id="g254"><path
             id="path256"
             style="fill:#1c4178;fill-opacity:1;fill-rule:evenodd;stroke:none"
             d="m 0,0 -1.073,0.243 c -0.054,-1.29 -0.295,-2.418 -0.723,-3.379 l 1.108,-0.445 C -0.315,-2.368 -0.085,-1.173 0,0 m -0.642,-7.916 -1.003,0.932 c 0.709,0.503 1.256,1.144 1.645,1.921 0.381,0.785 0.571,1.996 0.571,3.628 v 4.141 h 1.155 v -4.944 c 0,-2.45 -0.789,-4.344 -2.368,-5.678 m 3.37,4.348 C 2.479,-2.091 2.176,-0.971 1.819,-0.21 l 1.038,0.396 c 0.418,-1.128 0.751,-2.277 0.99,-3.449 z M 4.058,2.6 h 1.12 V -7.767 H 4.058 Z M 6.414,-3.475 C 6.29,-2.44 5.952,-1.331 5.399,-0.139 l 1.015,0.395 c 0.52,-1.22 0.908,-2.347 1.166,-3.381 z m 1.351,6.32 H 8.931 V -8.14 H 7.765 Z" /></g><g
           transform="translate(167.4515,46.3648)"
           id="g258"><path
             id="path260"
             style="fill:#1c4178;fill-opacity:1;fill-rule:evenodd;stroke:none"
             d="m 0,0 c 0,-1.321 -0.337,-2.631 -1.014,-3.931 -0.334,-0.638 -0.674,-1.186 -1.015,-1.643 h -0.863 c 0.513,0.962 0.878,1.751 1.097,2.366 0.349,1.033 0.524,2.115 0.524,3.242 0,1.797 -0.537,3.659 -1.609,5.586 h 0.862 C -1.434,4.851 -0.953,3.957 -0.571,2.94 -0.19,1.928 0,0.949 0,0" /></g><g
           transform="translate(124.6965,49.5688)"
           id="g262"><path
             id="path264"
             style="fill:#1c4178;fill-opacity:1;fill-rule:evenodd;stroke:none"
             d="m 0,0 h -2.151 c 0.394,0.528 0.786,1.172 1.167,1.935 L -2.13,2.359 C -2.474,1.521 -2.889,0.733 -3.38,0 h -4.398 l 0.755,0.377 C -7.396,1.036 -7.787,1.639 -8.191,2.188 L -9.2,1.694 C -8.794,1.193 -8.406,0.624 -8.042,0 h -2.107 v -2.83 h 1.1 v 1.766 h 7.938 V -2.83 H 0 Z m -8.237,-1.799 h 6.349 v -0.983 c -0.742,-0.491 -1.57,-0.954 -2.487,-1.39 v -0.41 H 0 v -1.053 h -4.375 v -1.801 c 0,-0.694 -0.372,-1.044 -1.114,-1.044 h -1.487 l -0.263,1.011 c 0.419,-0.016 0.877,-0.023 1.374,-0.023 0.253,0 0.376,0.148 0.376,0.447 v 1.41 h -4.626 v 1.053 h 4.626 v 0.892 c 0.833,0.353 1.497,0.655 1.984,0.908 h -4.732 z m 2.841,4.217 c 0.398,-0.574 0.771,-1.21 1.122,-1.903 L -5.269,0.012 c -0.343,0.717 -0.723,1.354 -1.133,1.915 z" /></g><g
           transform="translate(141.9975,52.0726)"
           id="g266"><path
             id="path268"
             style="fill:#1c4178;fill-opacity:1;fill-rule:evenodd;stroke:none"
             d="m 0,0 c 0.201,-0.399 0.393,-0.842 0.57,-1.331 h 4.294 v -1.107 h -8.761 v -2.523 c -0.032,-2.626 -0.415,-4.729 -1.155,-6.31 l -0.955,0.841 c 0.621,1.314 0.943,3.141 0.968,5.469 v 3.63 h 4.362 c -0.18,0.406 -0.376,0.777 -0.596,1.118 z" /></g><g
           transform="translate(26.1097,0.702)"
           id="g270"><path
             id="path272"
             style="fill:#ac8730;fill-opacity:1;fill-rule:evenodd;stroke:none"
             d="m 0,0 -6.093,10.151 c 0,0 -0.189,0.23 -0.189,0.613 v 0.228 0.52 18.075 H -8.581 V 10.742 10.164 c 0.19,-0.193 4.025,-6.729 4.025,-6.729 h -9.508 c 0,0 3.832,6.536 4.023,6.729 v 0.578 18.845 h -2.3 v -18.075 -0.52 l 0.003,-0.228 c 0,-0.383 -0.192,-0.613 -0.192,-0.613 L -18.623,0 Z" /></g><g
           transform="translate(24.2225,43.4583)"
           id="g274"><path
             id="path276"
             style="fill:#ac8730;fill-opacity:1;fill-rule:evenodd;stroke:none"
             d="m 0,0 c 0,0 1.146,4.746 -2.946,7.856 0,0 -1.634,1.472 -4.745,1.472 -2.782,0 -4.418,-1.472 -4.418,-1.472 C -15.872,5.235 -14.89,0 -14.89,0 Z" /></g><g
           transform="translate(9.7925,42.1507)"
           id="g278"><path
             id="path280"
             style="fill:#ac8730;fill-opacity:1;fill-rule:evenodd;stroke:none"
             d="m 0,0 h 13.997 c 0.109,0.266 0.204,0.537 0.282,0.816 H -0.281 C -0.203,0.537 -0.109,0.266 0,0" /></g><g
           transform="translate(23.5681,41.6605)"
           id="g282"><path
             id="path284"
             style="fill:#ac8730;fill-opacity:1;fill-rule:evenodd;stroke:none"
             d="m 0,0 h -13.555 c 0.141,-0.284 0.297,-0.558 0.467,-0.818 H -0.467 C -0.295,-0.558 -0.139,-0.284 0,0" /></g><g
           transform="translate(11.3996,39.6952)"
           id="g286"><path
             id="path288"
             style="fill:#ac8730;fill-opacity:1;fill-rule:evenodd;stroke:none"
             d="m 0,0 h 10.784 c 0.201,0.208 0.392,0.423 0.568,0.656 H -0.569 C -0.391,0.423 -0.202,0.208 0,0" /></g><g
           transform="translate(12.5648,38.7125)"
           id="g290"><path
             id="path292"
             style="fill:#ac8730;fill-opacity:1;fill-rule:evenodd;stroke:none"
             d="M 0,0 H 8.453 C 8.677,0.154 8.889,0.319 9.095,0.494 H -0.642 C -0.436,0.319 -0.222,0.154 0,0" /></g><g
           transform="translate(13.7334,38.0593)"
           id="g294"><path
             id="path296"
             style="fill:#ac8730;fill-opacity:1;fill-rule:evenodd;stroke:none"
             d="m 0,0 c 0.935,-0.419 1.97,-0.655 3.058,-0.655 1.088,0 2.124,0.236 3.058,0.655 z" /></g><g
           transform="translate(31.3089,37.0411)"
           id="g298"><path
             id="path300"
             style="fill:#1c4178;fill-opacity:1;fill-rule:evenodd;stroke:none"
             d="m 0,0 h -11.455 c 0,0 -1.061,0 -1.908,-0.58 -0.657,-0.446 -1.123,-1.49 -1.145,-1.542 h -0.003 C -14.532,-2.07 -15,-1.026 -15.654,-0.58 -16.502,0 -17.564,0 -17.564,0 h -11.455 l -2.29,-3.665 h 10.492 c 0,0 0.31,0 0.5,-0.033 0.308,-0.051 0.851,-0.215 1.418,-0.626 0.774,-0.559 0.993,-0.844 1.185,-1.038 0.094,-0.096 0.341,-0.426 0.341,-0.426 h 2.572 0.29 0.889 1.976 c 0,0 0.247,0.33 0.342,0.426 0.189,0.194 0.408,0.479 1.186,1.038 0.563,0.411 1.106,0.575 1.417,0.626 0.189,0.033 0.499,0.033 0.499,0.033 H 2.29 Z" /></g><g
           transform="translate(1.1483,32.2621)"
           id="g302"><path
             id="path304"
             style="fill:#1c4178;fill-opacity:1;fill-rule:evenodd;stroke:none"
             d="m 0,0 v -17.185 -0.235 c 0,-0.188 0.014,-0.359 0.029,-0.515 0.191,-1.841 0.763,-3.2 1.833,-4.988 1.685,-2.809 4.735,-4.769 4.735,-4.769 l 1.439,2.294 c 0,0 -1.954,1.038 -3.513,3.423 -0.317,0.478 -0.626,0.924 -0.839,1.367 -0.201,0.416 -0.355,0.763 -0.476,1.126 -0.088,0.259 -0.161,0.501 -0.214,0.722 -0.079,0.318 -0.114,0.563 -0.134,0.861 -0.005,0.106 -0.019,0.54 -0.019,0.54 v 0.083 L 2.841,0 Z" /></g><g
           transform="translate(5.5139,32.2621)"
           id="g306"><path
             id="path308"
             style="fill:#1c4178;fill-opacity:1;fill-rule:evenodd;stroke:none"
             d="m 0,0 v -17.359 c 0,0 0.004,-0.068 0.009,-0.145 0.006,-0.088 0.016,-0.209 0.029,-0.308 0.009,-0.059 0.022,-0.139 0.031,-0.185 0.053,-0.267 0.112,-0.51 0.233,-0.868 0.198,-0.585 0.543,-1.289 1.044,-2.098 1.286,-2.082 3.146,-3.029 3.146,-3.029 l 1.435,2.234 c 0,0 -0.475,0.264 -1.054,0.82 -0.384,0.369 -0.839,0.849 -1.23,1.434 -0.381,0.59 -0.615,1.183 -0.749,1.638 -0.113,0.372 -0.132,0.675 -0.137,0.873 -0.004,0.157 -0.003,0.245 -0.003,0.245 L 2.754,0 Z" /></g><g
           transform="translate(32.45,32.2621)"
           id="g310"><path
             id="path312"
             style="fill:#1c4178;fill-opacity:1;fill-rule:evenodd;stroke:none"
             d="m 0,0 v -17.185 -0.235 c 0,-0.188 -0.013,-0.359 -0.029,-0.515 -0.191,-1.841 -0.763,-3.2 -1.833,-4.988 -1.685,-2.809 -4.734,-4.769 -4.734,-4.769 l -1.44,2.294 c 0,0 1.955,1.038 3.513,3.423 0.317,0.478 0.627,0.924 0.84,1.367 0.2,0.416 0.354,0.763 0.476,1.126 0.088,0.259 0.16,0.501 0.214,0.722 0.079,0.318 0.113,0.563 0.133,0.861 0.006,0.106 0.019,0.54 0.019,0.54 v 0.083 l 0,17.276 z" /></g><g
           transform="translate(28.0854,32.2621)"
           id="g314"><path
             id="path316"
             style="fill:#1c4178;fill-opacity:1;fill-rule:evenodd;stroke:none"
             d="m 0,0 v -17.359 c 0,0 -0.004,-0.068 -0.009,-0.145 -0.006,-0.088 -0.016,-0.209 -0.027,-0.308 -0.01,-0.059 -0.024,-0.139 -0.033,-0.185 -0.053,-0.267 -0.112,-0.51 -0.233,-0.868 -0.198,-0.585 -0.542,-1.289 -1.043,-2.098 -1.285,-2.082 -3.147,-3.029 -3.147,-3.029 l -1.435,2.234 c 0,0 0.476,0.264 1.054,0.82 0.384,0.369 0.839,0.849 1.23,1.434 0.382,0.59 0.615,1.183 0.75,1.638 0.112,0.372 0.132,0.675 0.138,0.873 0.003,0.157 10e-4,0.245 10e-4,0.245 l 0,16.748 z" /></g></g></g></g></svg>